<svg xmlns="http://www.w3.org/2000/svg" viewBox="0 0 200 200">
  <circle cx="100" cy="100" r="90" fill="#E0F2FE" />
  <circle cx="100" cy="100" r="80" fill="#BAE6FD" />
  <!-- Kid Face -->
  <circle cx="100" cy="85" r="30" fill="#FDE047" />
  <!-- Eyes -->
  <circle cx="85" cy="80" r="4" fill="#1E3A8A" />
  <circle cx="115" cy="80" r="4" fill="#1E3A8A" />
  <!-- Smile -->
  <path d="M 85 95 Q 100 110 115 95" stroke="#1E3A8A" stroke-width="4" stroke-linecap="round" fill="transparent" />
  <!-- Peci/Hat -->
  <path d="M 70 70 Q 100 40 130 70 L 125 75 L 75 75 Z" fill="#3B82F6" />
  <!-- Body/Shirt -->
  <path d="M 70 120 L 130 120 L 140 160 Q 100 170 60 160 Z" fill="#3B82F6" />
  <!-- Book -->
  <rect x="75" y="130" width="50" height="30" rx="4" fill="#FFFFFF" />
  <rect x="100" y="130" width="2" height="30" fill="#E0F2FE" />
  <!-- Hands -->
  <circle cx="75" cy="145" r="8" fill="#FDE047" />
  <circle cx="125" cy="145" r="8" fill="#FDE047" />
  <!-- Stars -->
  <polygon points="50,40 55,55 70,55 58,65 62,80 50,70 38,80 42,65 30,55 45,55" fill="#FBBF24" transform="scale(0.5) translate(40, -10)" />
  <polygon points="50,40 55,55 70,55 58,65 62,80 50,70 38,80 42,65 30,55 45,55" fill="#FBBF24" transform="scale(0.8) translate(160, 40)" />
</svg>
